<?xml version="1.0" encoding="UTF-8" standalone="no"?><svg xmlns="http://www.w3.org/2000/svg" xmlns:xlink="http://www.w3.org/1999/xlink" contentScriptType="application/ecmascript" contentStyleType="text/css" height="600px" preserveAspectRatio="none" style="width:685px;height:600px;" version="1.1" viewBox="0 0 685 600" width="685px" zoomAndPan="magnify"><defs><filter height="300%" id="fykbhyx6x1kw9" width="300%" x="-1" y="-1"><feGaussianBlur result="blurOut" stdDeviation="2.0"/><feColorMatrix in="blurOut" result="blurOut2" type="matrix" values="0 0 0 0 0 0 0 0 0 0 0 0 0 0 0 0 0 0 .4 0"/><feOffset dx="4.0" dy="4.0" in="blurOut2" result="blurOut3"/><feBlend in="SourceGraphic" in2="blurOut3" mode="normal"/></filter></defs><g><text fill="#000000" font-family="sans-serif" font-size="14" font-weight="bold" lengthAdjust="spacingAndGlyphs" textLength="404" x="143" y="22.9951">Diagrama de secuencia - Modificar datos de cuenta</text><rect fill="#FFFFFF" filter="url(#fykbhyx6x1kw9)" height="122.6641" style="stroke: #A80036; stroke-width: 1.0;" width="10" x="199" y="147.7266"/><rect fill="#FFFFFF" filter="url(#fykbhyx6x1kw9)" height="93.5313" style="stroke: #A80036; stroke-width: 1.0;" width="10" x="356" y="176.8594"/><rect fill="#FFFFFF" filter="url(#fykbhyx6x1kw9)" height="64.3984" style="stroke: #A80036; stroke-width: 1.0;" width="10" x="513" y="205.9922"/><rect fill="#FFFFFF" filter="url(#fykbhyx6x1kw9)" height="175.0625" style="stroke: #000000; stroke-width: 2.0;" width="531" x="13" y="320.6563"/><line style="stroke: #A80036; stroke-width: 1.0; stroke-dasharray: 5.0,5.0;" x1="52" x2="52" y1="116.5938" y2="512.7188"/><line style="stroke: #A80036; stroke-width: 1.0; stroke-dasharray: 5.0,5.0;" x1="204" x2="204" y1="116.5938" y2="512.7188"/><line style="stroke: #A80036; stroke-width: 1.0; stroke-dasharray: 5.0,5.0;" x1="360.5" x2="360.5" y1="116.5938" y2="512.7188"/><line style="stroke: #A80036; stroke-width: 1.0; stroke-dasharray: 5.0,5.0;" x1="518" x2="518" y1="116.5938" y2="512.7188"/><text fill="#000000" font-family="sans-serif" font-size="14" lengthAdjust="spacingAndGlyphs" textLength="52" x="23" y="113.292">Jugador</text><ellipse cx="52" cy="43.2969" fill="#FEFECE" filter="url(#fykbhyx6x1kw9)" rx="8" ry="8" style="stroke: #A80036; stroke-width: 2.0;"/><path d="M52,51.2969 L52,78.2969 M39,59.2969 L65,59.2969 M52,78.2969 L39,93.2969 M52,78.2969 L65,93.2969 " fill="none" filter="url(#fykbhyx6x1kw9)" style="stroke: #A80036; stroke-width: 2.0;"/><text fill="#000000" font-family="sans-serif" font-size="14" lengthAdjust="spacingAndGlyphs" textLength="52" x="23" y="524.7139">Jugador</text><ellipse cx="52" cy="538.0156" fill="#FEFECE" filter="url(#fykbhyx6x1kw9)" rx="8" ry="8" style="stroke: #A80036; stroke-width: 2.0;"/><path d="M52,546.0156 L52,573.0156 M39,554.0156 L65,554.0156 M52,573.0156 L39,588.0156 M52,573.0156 L65,588.0156 " fill="none" filter="url(#fykbhyx6x1kw9)" style="stroke: #A80036; stroke-width: 2.0;"/><text fill="#000000" font-family="sans-serif" font-size="14" lengthAdjust="spacingAndGlyphs" textLength="126" x="138" y="113.292">InterfMenúUsuario</text><path d="M183.5,72.2969 L183.5,96.2969 M183.5,84.2969 L200.5,84.2969 " fill="none" filter="url(#fykbhyx6x1kw9)" style="stroke: #A80036; stroke-width: 2.0;"/><ellipse cx="212.5" cy="84.2969" fill="#FEFECE" filter="url(#fykbhyx6x1kw9)" rx="12" ry="12" style="stroke: #A80036; stroke-width: 2.0;"/><text fill="#000000" font-family="sans-serif" font-size="14" lengthAdjust="spacingAndGlyphs" textLength="126" x="138" y="524.7139">InterfMenúUsuario</text><path d="M183.5,532.0156 L183.5,556.0156 M183.5,544.0156 L200.5,544.0156 " fill="none" filter="url(#fykbhyx6x1kw9)" style="stroke: #A80036; stroke-width: 2.0;"/><ellipse cx="212.5" cy="544.0156" fill="#FEFECE" filter="url(#fykbhyx6x1kw9)" rx="12" ry="12" style="stroke: #A80036; stroke-width: 2.0;"/><text fill="#000000" font-family="sans-serif" font-size="14" lengthAdjust="spacingAndGlyphs" textLength="55" x="330.5" y="113.292">Sistema</text><ellipse cx="361" cy="84.2969" fill="#FEFECE" filter="url(#fykbhyx6x1kw9)" rx="12" ry="12" style="stroke: #A80036; stroke-width: 2.0;"/><polygon fill="#A80036" points="357,72.2969,363,67.2969,361,72.2969,363,77.2969,357,72.2969" style="stroke: #A80036; stroke-width: 1.0;"/><text fill="#000000" font-family="sans-serif" font-size="14" lengthAdjust="spacingAndGlyphs" textLength="55" x="330.5" y="524.7139">Sistema</text><ellipse cx="361" cy="544.0156" fill="#FEFECE" filter="url(#fykbhyx6x1kw9)" rx="12" ry="12" style="stroke: #A80036; stroke-width: 2.0;"/><polygon fill="#A80036" points="357,532.0156,363,527.0156,361,532.0156,363,537.0156,357,532.0156" style="stroke: #A80036; stroke-width: 1.0;"/><text fill="#000000" font-family="sans-serif" font-size="14" lengthAdjust="spacingAndGlyphs" textLength="21" x="504.5" y="113.292">BD</text><ellipse cx="518" cy="84.2969" fill="#FEFECE" filter="url(#fykbhyx6x1kw9)" rx="12" ry="12" style="stroke: #A80036; stroke-width: 2.0;"/><line style="stroke: #A80036; stroke-width: 2.0;" x1="506" x2="530" y1="98.2969" y2="98.2969"/><text fill="#000000" font-family="sans-serif" font-size="14" lengthAdjust="spacingAndGlyphs" textLength="21" x="504.5" y="524.7139">BD</text><ellipse cx="518" cy="544.0156" fill="#FEFECE" filter="url(#fykbhyx6x1kw9)" rx="12" ry="12" style="stroke: #A80036; stroke-width: 2.0;"/><line style="stroke: #A80036; stroke-width: 2.0;" x1="506" x2="530" y1="558.0156" y2="558.0156"/><rect fill="#FFFFFF" filter="url(#fykbhyx6x1kw9)" height="122.6641" style="stroke: #A80036; stroke-width: 1.0;" width="10" x="199" y="147.7266"/><rect fill="#FFFFFF" filter="url(#fykbhyx6x1kw9)" height="93.5313" style="stroke: #A80036; stroke-width: 1.0;" width="10" x="356" y="176.8594"/><rect fill="#FFFFFF" filter="url(#fykbhyx6x1kw9)" height="64.3984" style="stroke: #A80036; stroke-width: 1.0;" width="10" x="513" y="205.9922"/><polygon fill="#A80036" points="187,143.7266,197,147.7266,187,151.7266,191,147.7266" style="stroke: #A80036; stroke-width: 1.0;"/><line style="stroke: #A80036; stroke-width: 1.0;" x1="52" x2="193" y1="147.7266" y2="147.7266"/><text fill="#000000" font-family="sans-serif" font-size="13" font-weight="bold" lengthAdjust="spacingAndGlyphs" textLength="9" x="59" y="142.6606">1</text><text fill="#000000" font-family="sans-serif" font-size="13" lengthAdjust="spacingAndGlyphs" textLength="115" x="72" y="142.6606">modificarCuenta()</text><polygon fill="#A80036" points="344,172.8594,354,176.8594,344,180.8594,348,176.8594" style="stroke: #A80036; stroke-width: 1.0;"/><line style="stroke: #A80036; stroke-width: 1.0;" x1="209" x2="350" y1="176.8594" y2="176.8594"/><text fill="#000000" font-family="sans-serif" font-size="13" font-weight="bold" lengthAdjust="spacingAndGlyphs" textLength="9" x="216" y="171.7935">2</text><text fill="#000000" font-family="sans-serif" font-size="13" lengthAdjust="spacingAndGlyphs" textLength="115" x="229" y="171.7935">modificarCuenta()</text><polygon fill="#A80036" points="501,201.9922,511,205.9922,501,209.9922,505,205.9922" style="stroke: #A80036; stroke-width: 1.0;"/><line style="stroke: #A80036; stroke-width: 1.0;" x1="366" x2="507" y1="205.9922" y2="205.9922"/><text fill="#000000" font-family="sans-serif" font-size="13" font-weight="bold" lengthAdjust="spacingAndGlyphs" textLength="9" x="373" y="200.9263">3</text><text fill="#000000" font-family="sans-serif" font-size="13" lengthAdjust="spacingAndGlyphs" textLength="115" x="386" y="200.9263">modificarCuenta()</text><polygon fill="#FF0000" points="372,266.3906,362,270.3906,372,274.3906,368,270.3906" style="stroke: #FF0000; stroke-width: 1.0;"/><line style="stroke: #FF0000; stroke-width: 1.0;" x1="366" x2="517" y1="270.3906" y2="270.3906"/><text fill="#000000" font-family="sans-serif" font-size="13" font-weight="bold" lengthAdjust="spacingAndGlyphs" textLength="9" x="378" y="265.3247">4</text><text fill="#000000" font-family="sans-serif" font-size="13" lengthAdjust="spacingAndGlyphs" textLength="92" x="391" y="265.3247">confirmacion()</text><path d="M528,218.9922 L528,303.9922 L673,303.9922 L673,228.9922 L663,218.9922 L528,218.9922 " fill="#FBFB77" filter="url(#fykbhyx6x1kw9)" style="stroke: #A80036; stroke-width: 1.0;"/><path d="M663,218.9922 L663,228.9922 L673,228.9922 L663,218.9922 " fill="#FBFB77" style="stroke: #A80036; stroke-width: 1.0;"/><text fill="#000000" font-family="sans-serif" font-size="13" lengthAdjust="spacingAndGlyphs" textLength="114" x="534" y="236.0591">El sistema recoge</text><text fill="#000000" font-family="sans-serif" font-size="13" lengthAdjust="spacingAndGlyphs" textLength="119" x="534" y="251.1919">los datos recibidos</text><text fill="#000000" font-family="sans-serif" font-size="13" lengthAdjust="spacingAndGlyphs" textLength="85" x="534" y="266.3247">y los añade a</text><text fill="#000000" font-family="sans-serif" font-size="13" lengthAdjust="spacingAndGlyphs" textLength="120" x="534" y="281.4575">la BD sustituyendo</text><text fill="#000000" font-family="sans-serif" font-size="13" lengthAdjust="spacingAndGlyphs" textLength="87" x="534" y="296.5903">los anteriores</text><path d="M13,320.6563 L77,320.6563 L77,327.6563 L67,337.6563 L13,337.6563 L13,320.6563 " fill="#EEEEEE" style="stroke: #000000; stroke-width: 1.0;"/><rect fill="none" height="175.0625" style="stroke: #000000; stroke-width: 2.0;" width="531" x="13" y="320.6563"/><text fill="#000000" font-family="sans-serif" font-size="13" font-weight="bold" lengthAdjust="spacingAndGlyphs" textLength="19" x="28" y="333.7231">alt</text><text fill="#000000" font-family="sans-serif" font-size="11" font-weight="bold" lengthAdjust="spacingAndGlyphs" textLength="88" x="92" y="332.8667">[NoPermitido]</text><polygon fill="#008000" points="372,354.9219,362,358.9219,372,362.9219,368,358.9219" style="stroke: #008000; stroke-width: 1.0;"/><line style="stroke: #008000; stroke-width: 1.0;" x1="366" x2="517" y1="358.9219" y2="358.9219"/><text fill="#000000" font-family="sans-serif" font-size="13" font-weight="bold" lengthAdjust="spacingAndGlyphs" textLength="9" x="378" y="353.856">5</text><text fill="#000000" font-family="sans-serif" font-size="13" lengthAdjust="spacingAndGlyphs" textLength="92" x="391" y="353.856">confirmacion()</text><polygon fill="#008000" points="215,419.3203,205,423.3203,215,427.3203,211,423.3203" style="stroke: #008000; stroke-width: 1.0;"/><line style="stroke: #008000; stroke-width: 1.0;" x1="209" x2="360" y1="423.3203" y2="423.3203"/><text fill="#000000" font-family="sans-serif" font-size="13" font-weight="bold" lengthAdjust="spacingAndGlyphs" textLength="9" x="221" y="418.2544">6</text><text fill="#000000" font-family="sans-serif" font-size="13" lengthAdjust="spacingAndGlyphs" textLength="41" x="234" y="418.2544">error()</text><path d="M366,371.9219 L366,456.9219 L498,456.9219 L498,381.9219 L488,371.9219 L366,371.9219 " fill="#FBFB77" filter="url(#fykbhyx6x1kw9)" style="stroke: #A80036; stroke-width: 1.0;"/><path d="M488,371.9219 L488,381.9219 L498,381.9219 L488,371.9219 " fill="#FBFB77" style="stroke: #A80036; stroke-width: 1.0;"/><text fill="#000000" font-family="sans-serif" font-size="13" lengthAdjust="spacingAndGlyphs" textLength="90" x="372" y="388.9888">En caso de no</text><text fill="#000000" font-family="sans-serif" font-size="13" lengthAdjust="spacingAndGlyphs" textLength="97" x="372" y="404.1216">tener permisos</text><text fill="#000000" font-family="sans-serif" font-size="13" lengthAdjust="spacingAndGlyphs" textLength="111" x="372" y="419.2544">para un apartado</text><text fill="#000000" font-family="sans-serif" font-size="13" lengthAdjust="spacingAndGlyphs" textLength="67" x="372" y="434.3872">específico,</text><text fill="#000000" font-family="sans-serif" font-size="13" lengthAdjust="spacingAndGlyphs" textLength="107" x="372" y="449.52">devuelve el error</text><polygon fill="#008000" points="63,483.7188,53,487.7188,63,491.7188,59,487.7188" style="stroke: #008000; stroke-width: 1.0;"/><line style="stroke: #008000; stroke-width: 1.0;" x1="57" x2="203" y1="487.7188" y2="487.7188"/><text fill="#000000" font-family="sans-serif" font-size="13" font-weight="bold" lengthAdjust="spacingAndGlyphs" textLength="9" x="69" y="482.6528">7</text><text fill="#000000" font-family="sans-serif" font-size="13" lengthAdjust="spacingAndGlyphs" textLength="41" x="82" y="482.6528">error()</text><!--
@startuml
title Diagrama de secuencia - Modificar datos de cuenta
autonumber
actor Jugador
boundary InterfMenúUsuario
control Sistema
entity BD

Jugador -> InterfMenúUsuario : modificarCuenta()
activate InterfMenúUsuario
InterfMenúUsuario -> Sistema : modificarCuenta()
activate Sistema
Sistema -> BD : modificarCuenta()
activate BD
BD -[#red]> Sistema : confirmacion()
note right 
El sistema recoge 
los datos recibidos
y los añade a 
la BD sustituyendo 
los anteriores
end note


deactivate BD
deactivate Sistema
deactivate InterfMenúUsuario
alt NoPermitido
BD -[#green]> Sistema : confirmacion()
Sistema -[#green]> InterfMenúUsuario : error()
note right 
En caso de no
tener permisos
para un apartado
específico,
devuelve el error
end note
InterfMenúUsuario -[#green]> Jugador : error()
end
@enduml

PlantUML version 1.2019.05(Sat Apr 20 16:45:36 UTC 2019)
(GPL source distribution)
Java Runtime: Java(TM) SE Runtime Environment
JVM: Java HotSpot(TM) 64-Bit Server VM
Java Version: 1.7.0_25-b15
Operating System: Linux
Default Encoding: UTF-8
Language: en
Country: US
--></g></svg>