<?xml version="1.0" encoding="UTF-8" standalone="no"?><svg xmlns="http://www.w3.org/2000/svg" xmlns:xlink="http://www.w3.org/1999/xlink" contentScriptType="application/ecmascript" contentStyleType="text/css" height="341px" preserveAspectRatio="none" style="width:543px;height:341px;" version="1.1" viewBox="0 0 543 341" width="543px" zoomAndPan="magnify"><defs><filter height="300%" id="fa5jveqf97v5v" width="300%" x="-1" y="-1"><feGaussianBlur result="blurOut" stdDeviation="2.0"/><feColorMatrix in="blurOut" result="blurOut2" type="matrix" values="0 0 0 0 0 0 0 0 0 0 0 0 0 0 0 0 0 0 .4 0"/><feOffset dx="4.0" dy="4.0" in="blurOut2" result="blurOut3"/><feBlend in="SourceGraphic" in2="blurOut3" mode="normal"/></filter></defs><g><text fill="#000000" font-family="sans-serif" font-size="14" font-weight="bold" lengthAdjust="spacingAndGlyphs" textLength="404" x="69.5" y="22.9951">Diagrama de secuencia - Modificar datos de cuenta</text><rect fill="#FFFFFF" filter="url(#fa5jveqf97v5v)" height="88.2656" style="stroke: #A80036; stroke-width: 1.0;" width="10" x="182" y="147.7266"/><rect fill="#FFFFFF" filter="url(#fa5jveqf97v5v)" height="59.1328" style="stroke: #A80036; stroke-width: 1.0;" width="10" x="337" y="176.8594"/><rect fill="#FFFFFF" filter="url(#fa5jveqf97v5v)" height="30" style="stroke: #A80036; stroke-width: 1.0;" width="10" x="514" y="205.9922"/><line style="stroke: #A80036; stroke-width: 1.0; stroke-dasharray: 5.0,5.0;" x1="37" x2="37" y1="116.5938" y2="253.9922"/><line style="stroke: #A80036; stroke-width: 1.0; stroke-dasharray: 5.0,5.0;" x1="187" x2="187" y1="116.5938" y2="253.9922"/><line style="stroke: #A80036; stroke-width: 1.0; stroke-dasharray: 5.0,5.0;" x1="341.5" x2="341.5" y1="116.5938" y2="253.9922"/><line style="stroke: #A80036; stroke-width: 1.0; stroke-dasharray: 5.0,5.0;" x1="519" x2="519" y1="116.5938" y2="253.9922"/><text fill="#000000" font-family="sans-serif" font-size="14" lengthAdjust="spacingAndGlyphs" textLength="52" x="8" y="113.292">Jugador</text><ellipse cx="37" cy="43.2969" fill="#FEFECE" filter="url(#fa5jveqf97v5v)" rx="8" ry="8" style="stroke: #A80036; stroke-width: 2.0;"/><path d="M37,51.2969 L37,78.2969 M24,59.2969 L50,59.2969 M37,78.2969 L24,93.2969 M37,78.2969 L50,93.2969 " fill="none" filter="url(#fa5jveqf97v5v)" style="stroke: #A80036; stroke-width: 2.0;"/><text fill="#000000" font-family="sans-serif" font-size="14" lengthAdjust="spacingAndGlyphs" textLength="52" x="8" y="265.9873">Jugador</text><ellipse cx="37" cy="279.2891" fill="#FEFECE" filter="url(#fa5jveqf97v5v)" rx="8" ry="8" style="stroke: #A80036; stroke-width: 2.0;"/><path d="M37,287.2891 L37,314.2891 M24,295.2891 L50,295.2891 M37,314.2891 L24,329.2891 M37,314.2891 L50,329.2891 " fill="none" filter="url(#fa5jveqf97v5v)" style="stroke: #A80036; stroke-width: 2.0;"/><text fill="#000000" font-family="sans-serif" font-size="14" lengthAdjust="spacingAndGlyphs" textLength="126" x="121" y="113.292">InterfMenúUsuario</text><path d="M166.5,72.2969 L166.5,96.2969 M166.5,84.2969 L183.5,84.2969 " fill="none" filter="url(#fa5jveqf97v5v)" style="stroke: #A80036; stroke-width: 2.0;"/><ellipse cx="195.5" cy="84.2969" fill="#FEFECE" filter="url(#fa5jveqf97v5v)" rx="12" ry="12" style="stroke: #A80036; stroke-width: 2.0;"/><text fill="#000000" font-family="sans-serif" font-size="14" lengthAdjust="spacingAndGlyphs" textLength="126" x="121" y="265.9873">InterfMenúUsuario</text><path d="M166.5,273.2891 L166.5,297.2891 M166.5,285.2891 L183.5,285.2891 " fill="none" filter="url(#fa5jveqf97v5v)" style="stroke: #A80036; stroke-width: 2.0;"/><ellipse cx="195.5" cy="285.2891" fill="#FEFECE" filter="url(#fa5jveqf97v5v)" rx="12" ry="12" style="stroke: #A80036; stroke-width: 2.0;"/><text fill="#000000" font-family="sans-serif" font-size="14" lengthAdjust="spacingAndGlyphs" textLength="55" x="311.5" y="113.292">Sistema</text><ellipse cx="342" cy="84.2969" fill="#FEFECE" filter="url(#fa5jveqf97v5v)" rx="12" ry="12" style="stroke: #A80036; stroke-width: 2.0;"/><polygon fill="#A80036" points="338,72.2969,344,67.2969,342,72.2969,344,77.2969,338,72.2969" style="stroke: #A80036; stroke-width: 1.0;"/><text fill="#000000" font-family="sans-serif" font-size="14" lengthAdjust="spacingAndGlyphs" textLength="55" x="311.5" y="265.9873">Sistema</text><ellipse cx="342" cy="285.2891" fill="#FEFECE" filter="url(#fa5jveqf97v5v)" rx="12" ry="12" style="stroke: #A80036; stroke-width: 2.0;"/><polygon fill="#A80036" points="338,273.2891,344,268.2891,342,273.2891,344,278.2891,338,273.2891" style="stroke: #A80036; stroke-width: 1.0;"/><text fill="#000000" font-family="sans-serif" font-size="14" lengthAdjust="spacingAndGlyphs" textLength="21" x="505.5" y="113.292">BD</text><ellipse cx="519" cy="84.2969" fill="#FEFECE" filter="url(#fa5jveqf97v5v)" rx="12" ry="12" style="stroke: #A80036; stroke-width: 2.0;"/><line style="stroke: #A80036; stroke-width: 2.0;" x1="507" x2="531" y1="98.2969" y2="98.2969"/><text fill="#000000" font-family="sans-serif" font-size="14" lengthAdjust="spacingAndGlyphs" textLength="21" x="505.5" y="265.9873">BD</text><ellipse cx="519" cy="285.2891" fill="#FEFECE" filter="url(#fa5jveqf97v5v)" rx="12" ry="12" style="stroke: #A80036; stroke-width: 2.0;"/><line style="stroke: #A80036; stroke-width: 2.0;" x1="507" x2="531" y1="299.2891" y2="299.2891"/><rect fill="#FFFFFF" filter="url(#fa5jveqf97v5v)" height="88.2656" style="stroke: #A80036; stroke-width: 1.0;" width="10" x="182" y="147.7266"/><rect fill="#FFFFFF" filter="url(#fa5jveqf97v5v)" height="59.1328" style="stroke: #A80036; stroke-width: 1.0;" width="10" x="337" y="176.8594"/><rect fill="#FFFFFF" filter="url(#fa5jveqf97v5v)" height="30" style="stroke: #A80036; stroke-width: 1.0;" width="10" x="514" y="205.9922"/><polygon fill="#A80036" points="170,143.7266,180,147.7266,170,151.7266,174,147.7266" style="stroke: #A80036; stroke-width: 1.0;"/><line style="stroke: #A80036; stroke-width: 1.0;" x1="37" x2="176" y1="147.7266" y2="147.7266"/><text fill="#000000" font-family="sans-serif" font-size="13" font-weight="bold" lengthAdjust="spacingAndGlyphs" textLength="9" x="44" y="142.6606">1</text><text fill="#000000" font-family="sans-serif" font-size="13" lengthAdjust="spacingAndGlyphs" textLength="113" x="57" y="142.6606">ModificarCuenta()</text><polygon fill="#A80036" points="325,172.8594,335,176.8594,325,180.8594,329,176.8594" style="stroke: #A80036; stroke-width: 1.0;"/><line style="stroke: #A80036; stroke-width: 1.0;" x1="192" x2="331" y1="176.8594" y2="176.8594"/><text fill="#000000" font-family="sans-serif" font-size="13" font-weight="bold" lengthAdjust="spacingAndGlyphs" textLength="9" x="199" y="171.7935">2</text><text fill="#000000" font-family="sans-serif" font-size="13" lengthAdjust="spacingAndGlyphs" textLength="113" x="212" y="171.7935">ModificarCuenta()</text><polygon fill="#A80036" points="502,201.9922,512,205.9922,502,209.9922,506,205.9922" style="stroke: #A80036; stroke-width: 1.0;"/><line style="stroke: #A80036; stroke-width: 1.0;" x1="347" x2="508" y1="205.9922" y2="205.9922"/><text fill="#000000" font-family="sans-serif" font-size="13" font-weight="bold" lengthAdjust="spacingAndGlyphs" textLength="9" x="354" y="200.9263">3</text><text fill="#000000" font-family="sans-serif" font-size="13" lengthAdjust="spacingAndGlyphs" textLength="135" x="367" y="200.9263">realizarModificación()</text><!--
@startuml
title Diagrama de secuencia - Modificar datos de cuenta
autonumber
actor Jugador
boundary InterfMenúUsuario
control Sistema
entity BD

Jugador -> InterfMenúUsuario : ModificarCuenta()
activate InterfMenúUsuario
InterfMenúUsuario -> Sistema : ModificarCuenta()
activate Sistema
Sistema -> BD : realizarModificación()
activate BD
deactivate BD
deactivate Sistema
deactivate InterfMenúUsuario
@enduml

PlantUML version 1.2019.05(Sat Apr 20 16:45:36 UTC 2019)
(GPL source distribution)
Java Runtime: Java(TM) SE Runtime Environment
JVM: Java HotSpot(TM) 64-Bit Server VM
Java Version: 1.7.0_25-b15
Operating System: Linux
Default Encoding: UTF-8
Language: en
Country: US
--></g></svg>