<?xml version="1.0" encoding="UTF-8" standalone="no"?><svg xmlns="http://www.w3.org/2000/svg" xmlns:xlink="http://www.w3.org/1999/xlink" contentScriptType="application/ecmascript" contentStyleType="text/css" height="283px" preserveAspectRatio="none" style="width:430px;height:283px;" version="1.1" viewBox="0 0 430 283" width="430px" zoomAndPan="magnify"><defs><filter height="300%" id="fo8ih62k2sr4z" width="300%" x="-1" y="-1"><feGaussianBlur result="blurOut" stdDeviation="2.0"/><feColorMatrix in="blurOut" result="blurOut2" type="matrix" values="0 0 0 0 0 0 0 0 0 0 0 0 0 0 0 0 0 0 .4 0"/><feOffset dx="4.0" dy="4.0" in="blurOut2" result="blurOut3"/><feBlend in="SourceGraphic" in2="blurOut3" mode="normal"/></filter></defs><g><text fill="#000000" font-family="sans-serif" font-size="14" font-weight="bold" lengthAdjust="spacingAndGlyphs" textLength="406" x="12" y="22.9951">Diagrama de secuencia - Ver menú de movimientos</text><rect fill="#FFFFFF" filter="url(#fo8ih62k2sr4z)" height="30" style="stroke: #A80036; stroke-width: 1.0;" width="10" x="217.5" y="147.7266"/><line style="stroke: #A80036; stroke-width: 1.0; stroke-dasharray: 5.0,5.0;" x1="57.5" x2="57.5" y1="116.5938" y2="195.7266"/><line style="stroke: #A80036; stroke-width: 1.0; stroke-dasharray: 5.0,5.0;" x1="222.5" x2="222.5" y1="116.5938" y2="195.7266"/><line style="stroke: #A80036; stroke-width: 1.0; stroke-dasharray: 5.0,5.0;" x1="328.5" x2="328.5" y1="116.5938" y2="195.7266"/><line style="stroke: #A80036; stroke-width: 1.0; stroke-dasharray: 5.0,5.0;" x1="385.5" x2="385.5" y1="116.5938" y2="195.7266"/><text fill="#000000" font-family="sans-serif" font-size="14" lengthAdjust="spacingAndGlyphs" textLength="52" x="28.5" y="113.292">Jugador</text><ellipse cx="57.5" cy="43.2969" fill="#FEFECE" filter="url(#fo8ih62k2sr4z)" rx="8" ry="8" style="stroke: #A80036; stroke-width: 2.0;"/><path d="M57.5,51.2969 L57.5,78.2969 M44.5,59.2969 L70.5,59.2969 M57.5,78.2969 L44.5,93.2969 M57.5,78.2969 L70.5,93.2969 " fill="none" filter="url(#fo8ih62k2sr4z)" style="stroke: #A80036; stroke-width: 2.0;"/><text fill="#000000" font-family="sans-serif" font-size="14" lengthAdjust="spacingAndGlyphs" textLength="52" x="28.5" y="207.7217">Jugador</text><ellipse cx="57.5" cy="221.0234" fill="#FEFECE" filter="url(#fo8ih62k2sr4z)" rx="8" ry="8" style="stroke: #A80036; stroke-width: 2.0;"/><path d="M57.5,229.0234 L57.5,256.0234 M44.5,237.0234 L70.5,237.0234 M57.5,256.0234 L44.5,271.0234 M57.5,256.0234 L70.5,271.0234 " fill="none" filter="url(#fo8ih62k2sr4z)" style="stroke: #A80036; stroke-width: 2.0;"/><text fill="#000000" font-family="sans-serif" font-size="14" lengthAdjust="spacingAndGlyphs" textLength="126" x="156.5" y="113.292">InterfMenúUsuario</text><path d="M202,72.2969 L202,96.2969 M202,84.2969 L219,84.2969 " fill="none" filter="url(#fo8ih62k2sr4z)" style="stroke: #A80036; stroke-width: 2.0;"/><ellipse cx="231" cy="84.2969" fill="#FEFECE" filter="url(#fo8ih62k2sr4z)" rx="12" ry="12" style="stroke: #A80036; stroke-width: 2.0;"/><text fill="#000000" font-family="sans-serif" font-size="14" lengthAdjust="spacingAndGlyphs" textLength="126" x="156.5" y="207.7217">InterfMenúUsuario</text><path d="M202,215.0234 L202,239.0234 M202,227.0234 L219,227.0234 " fill="none" filter="url(#fo8ih62k2sr4z)" style="stroke: #A80036; stroke-width: 2.0;"/><ellipse cx="231" cy="227.0234" fill="#FEFECE" filter="url(#fo8ih62k2sr4z)" rx="12" ry="12" style="stroke: #A80036; stroke-width: 2.0;"/><text fill="#000000" font-family="sans-serif" font-size="14" lengthAdjust="spacingAndGlyphs" textLength="55" x="298.5" y="113.292">Sistema</text><ellipse cx="329" cy="84.2969" fill="#FEFECE" filter="url(#fo8ih62k2sr4z)" rx="12" ry="12" style="stroke: #A80036; stroke-width: 2.0;"/><polygon fill="#A80036" points="325,72.2969,331,67.2969,329,72.2969,331,77.2969,325,72.2969" style="stroke: #A80036; stroke-width: 1.0;"/><text fill="#000000" font-family="sans-serif" font-size="14" lengthAdjust="spacingAndGlyphs" textLength="55" x="298.5" y="207.7217">Sistema</text><ellipse cx="329" cy="227.0234" fill="#FEFECE" filter="url(#fo8ih62k2sr4z)" rx="12" ry="12" style="stroke: #A80036; stroke-width: 2.0;"/><polygon fill="#A80036" points="325,215.0234,331,210.0234,329,215.0234,331,220.0234,325,215.0234" style="stroke: #A80036; stroke-width: 1.0;"/><text fill="#000000" font-family="sans-serif" font-size="14" lengthAdjust="spacingAndGlyphs" textLength="21" x="372" y="113.292">BD</text><ellipse cx="385.5" cy="84.2969" fill="#FEFECE" filter="url(#fo8ih62k2sr4z)" rx="12" ry="12" style="stroke: #A80036; stroke-width: 2.0;"/><line style="stroke: #A80036; stroke-width: 2.0;" x1="373.5" x2="397.5" y1="98.2969" y2="98.2969"/><text fill="#000000" font-family="sans-serif" font-size="14" lengthAdjust="spacingAndGlyphs" textLength="21" x="372" y="207.7217">BD</text><ellipse cx="385.5" cy="227.0234" fill="#FEFECE" filter="url(#fo8ih62k2sr4z)" rx="12" ry="12" style="stroke: #A80036; stroke-width: 2.0;"/><line style="stroke: #A80036; stroke-width: 2.0;" x1="373.5" x2="397.5" y1="241.0234" y2="241.0234"/><rect fill="#FFFFFF" filter="url(#fo8ih62k2sr4z)" height="30" style="stroke: #A80036; stroke-width: 1.0;" width="10" x="217.5" y="147.7266"/><polygon fill="#A80036" points="205.5,143.7266,215.5,147.7266,205.5,151.7266,209.5,147.7266" style="stroke: #A80036; stroke-width: 1.0;"/><line style="stroke: #A80036; stroke-width: 1.0;" x1="57.5" x2="211.5" y1="147.7266" y2="147.7266"/><text fill="#000000" font-family="sans-serif" font-size="13" font-weight="bold" lengthAdjust="spacingAndGlyphs" textLength="9" x="64.5" y="142.6606">1</text><text fill="#000000" font-family="sans-serif" font-size="13" lengthAdjust="spacingAndGlyphs" textLength="128" x="77.5" y="142.6606">menuMovimientos()</text><!--
@startuml
title Diagrama de secuencia - Ver menú de movimientos
autonumber
actor Jugador
boundary InterfMenúUsuario
control Sistema
entity BD

Jugador -> InterfMenúUsuario : menuMovimientos()
activate InterfMenúUsuario
deactivate InterfMenúUsuario
@enduml

PlantUML version 1.2019.05(Sat Apr 20 16:45:36 UTC 2019)
(GPL source distribution)
Java Runtime: Java(TM) SE Runtime Environment
JVM: Java HotSpot(TM) 64-Bit Server VM
Java Version: 1.7.0_25-b15
Operating System: Linux
Default Encoding: UTF-8
Language: en
Country: US
--></g></svg>