<?xml version="1.0" encoding="UTF-8" standalone="no"?><svg xmlns="http://www.w3.org/2000/svg" xmlns:xlink="http://www.w3.org/1999/xlink" contentScriptType="application/ecmascript" contentStyleType="text/css" height="369px" preserveAspectRatio="none" style="width:503px;height:369px;" version="1.1" viewBox="0 0 503 369" width="503px" zoomAndPan="magnify"><defs><filter height="300%" id="f18g2nvlv697jk" width="300%" x="-1" y="-1"><feGaussianBlur result="blurOut" stdDeviation="2.0"/><feColorMatrix in="blurOut" result="blurOut2" type="matrix" values="0 0 0 0 0 0 0 0 0 0 0 0 0 0 0 0 0 0 .4 0"/><feOffset dx="4.0" dy="4.0" in="blurOut2" result="blurOut3"/><feBlend in="SourceGraphic" in2="blurOut3" mode="normal"/></filter></defs><g><text fill="#000000" font-family="sans-serif" font-size="14" font-weight="bold" lengthAdjust="spacingAndGlyphs" textLength="336" x="83.5" y="22.9951">Diagrama de secuencia - Crear una cuenta</text><rect fill="#FFFFFF" filter="url(#f18g2nvlv697jk)" height="116.5313" style="stroke: #A80036; stroke-width: 1.0;" width="10" x="160" y="147.7266"/><rect fill="#FFFFFF" filter="url(#f18g2nvlv697jk)" height="87.3984" style="stroke: #A80036; stroke-width: 1.0;" width="10" x="318" y="176.8594"/><rect fill="#FFFFFF" filter="url(#f18g2nvlv697jk)" height="58.2656" style="stroke: #A80036; stroke-width: 1.0;" width="10" x="474" y="205.9922"/><line style="stroke: #A80036; stroke-width: 1.0; stroke-dasharray: 5.0,5.0;" x1="37" x2="37" y1="116.5938" y2="282.2578"/><line style="stroke: #A80036; stroke-width: 1.0; stroke-dasharray: 5.0,5.0;" x1="165" x2="165" y1="116.5938" y2="282.2578"/><line style="stroke: #A80036; stroke-width: 1.0; stroke-dasharray: 5.0,5.0;" x1="322.5" x2="322.5" y1="116.5938" y2="282.2578"/><line style="stroke: #A80036; stroke-width: 1.0; stroke-dasharray: 5.0,5.0;" x1="479" x2="479" y1="116.5938" y2="282.2578"/><text fill="#000000" font-family="sans-serif" font-size="14" lengthAdjust="spacingAndGlyphs" textLength="52" x="8" y="113.292">Jugador</text><ellipse cx="37" cy="43.2969" fill="#FEFECE" filter="url(#f18g2nvlv697jk)" rx="8" ry="8" style="stroke: #A80036; stroke-width: 2.0;"/><path d="M37,51.2969 L37,78.2969 M24,59.2969 L50,59.2969 M37,78.2969 L24,93.2969 M37,78.2969 L50,93.2969 " fill="none" filter="url(#f18g2nvlv697jk)" style="stroke: #A80036; stroke-width: 2.0;"/><text fill="#000000" font-family="sans-serif" font-size="14" lengthAdjust="spacingAndGlyphs" textLength="52" x="8" y="294.2529">Jugador</text><ellipse cx="37" cy="307.5547" fill="#FEFECE" filter="url(#f18g2nvlv697jk)" rx="8" ry="8" style="stroke: #A80036; stroke-width: 2.0;"/><path d="M37,315.5547 L37,342.5547 M24,323.5547 L50,323.5547 M37,342.5547 L24,357.5547 M37,342.5547 L50,357.5547 " fill="none" filter="url(#f18g2nvlv697jk)" style="stroke: #A80036; stroke-width: 2.0;"/><text fill="#000000" font-family="sans-serif" font-size="14" lengthAdjust="spacingAndGlyphs" textLength="126" x="99" y="113.292">InterfMenúUsuario</text><path d="M144.5,72.2969 L144.5,96.2969 M144.5,84.2969 L161.5,84.2969 " fill="none" filter="url(#f18g2nvlv697jk)" style="stroke: #A80036; stroke-width: 2.0;"/><ellipse cx="173.5" cy="84.2969" fill="#FEFECE" filter="url(#f18g2nvlv697jk)" rx="12" ry="12" style="stroke: #A80036; stroke-width: 2.0;"/><text fill="#000000" font-family="sans-serif" font-size="14" lengthAdjust="spacingAndGlyphs" textLength="126" x="99" y="294.2529">InterfMenúUsuario</text><path d="M144.5,301.5547 L144.5,325.5547 M144.5,313.5547 L161.5,313.5547 " fill="none" filter="url(#f18g2nvlv697jk)" style="stroke: #A80036; stroke-width: 2.0;"/><ellipse cx="173.5" cy="313.5547" fill="#FEFECE" filter="url(#f18g2nvlv697jk)" rx="12" ry="12" style="stroke: #A80036; stroke-width: 2.0;"/><text fill="#000000" font-family="sans-serif" font-size="14" lengthAdjust="spacingAndGlyphs" textLength="55" x="292.5" y="113.292">Sistema</text><ellipse cx="323" cy="84.2969" fill="#FEFECE" filter="url(#f18g2nvlv697jk)" rx="12" ry="12" style="stroke: #A80036; stroke-width: 2.0;"/><polygon fill="#A80036" points="319,72.2969,325,67.2969,323,72.2969,325,77.2969,319,72.2969" style="stroke: #A80036; stroke-width: 1.0;"/><text fill="#000000" font-family="sans-serif" font-size="14" lengthAdjust="spacingAndGlyphs" textLength="55" x="292.5" y="294.2529">Sistema</text><ellipse cx="323" cy="313.5547" fill="#FEFECE" filter="url(#f18g2nvlv697jk)" rx="12" ry="12" style="stroke: #A80036; stroke-width: 2.0;"/><polygon fill="#A80036" points="319,301.5547,325,296.5547,323,301.5547,325,306.5547,319,301.5547" style="stroke: #A80036; stroke-width: 1.0;"/><text fill="#000000" font-family="sans-serif" font-size="14" lengthAdjust="spacingAndGlyphs" textLength="21" x="465.5" y="113.292">BD</text><ellipse cx="479" cy="84.2969" fill="#FEFECE" filter="url(#f18g2nvlv697jk)" rx="12" ry="12" style="stroke: #A80036; stroke-width: 2.0;"/><line style="stroke: #A80036; stroke-width: 2.0;" x1="467" x2="491" y1="98.2969" y2="98.2969"/><text fill="#000000" font-family="sans-serif" font-size="14" lengthAdjust="spacingAndGlyphs" textLength="21" x="465.5" y="294.2529">BD</text><ellipse cx="479" cy="313.5547" fill="#FEFECE" filter="url(#f18g2nvlv697jk)" rx="12" ry="12" style="stroke: #A80036; stroke-width: 2.0;"/><line style="stroke: #A80036; stroke-width: 2.0;" x1="467" x2="491" y1="327.5547" y2="327.5547"/><rect fill="#FFFFFF" filter="url(#f18g2nvlv697jk)" height="116.5313" style="stroke: #A80036; stroke-width: 1.0;" width="10" x="160" y="147.7266"/><rect fill="#FFFFFF" filter="url(#f18g2nvlv697jk)" height="87.3984" style="stroke: #A80036; stroke-width: 1.0;" width="10" x="318" y="176.8594"/><rect fill="#FFFFFF" filter="url(#f18g2nvlv697jk)" height="58.2656" style="stroke: #A80036; stroke-width: 1.0;" width="10" x="474" y="205.9922"/><polygon fill="#A80036" points="148,143.7266,158,147.7266,148,151.7266,152,147.7266" style="stroke: #A80036; stroke-width: 1.0;"/><line style="stroke: #A80036; stroke-width: 1.0;" x1="37" x2="154" y1="147.7266" y2="147.7266"/><text fill="#000000" font-family="sans-serif" font-size="13" font-weight="bold" lengthAdjust="spacingAndGlyphs" textLength="9" x="44" y="142.6606">1</text><text fill="#000000" font-family="sans-serif" font-size="13" lengthAdjust="spacingAndGlyphs" textLength="91" x="57" y="142.6606">CrearCuenta()</text><polygon fill="#A80036" points="306,172.8594,316,176.8594,306,180.8594,310,176.8594" style="stroke: #A80036; stroke-width: 1.0;"/><line style="stroke: #A80036; stroke-width: 1.0;" x1="170" x2="312" y1="176.8594" y2="176.8594"/><text fill="#000000" font-family="sans-serif" font-size="13" font-weight="bold" lengthAdjust="spacingAndGlyphs" textLength="9" x="177" y="171.7935">2</text><text fill="#000000" font-family="sans-serif" font-size="13" lengthAdjust="spacingAndGlyphs" textLength="116" x="190" y="171.7935">comprobarDispo()</text><polygon fill="#A80036" points="462,201.9922,472,205.9922,462,209.9922,466,205.9922" style="stroke: #A80036; stroke-width: 1.0;"/><line style="stroke: #A80036; stroke-width: 1.0;" x1="328" x2="468" y1="205.9922" y2="205.9922"/><text fill="#000000" font-family="sans-serif" font-size="13" font-weight="bold" lengthAdjust="spacingAndGlyphs" textLength="9" x="335" y="200.9263">3</text><text fill="#000000" font-family="sans-serif" font-size="13" lengthAdjust="spacingAndGlyphs" textLength="113" x="348" y="200.9263">realizarConsulta()</text><polygon fill="#A80036" points="339,231.125,329,235.125,339,239.125,335,235.125" style="stroke: #A80036; stroke-width: 1.0;"/><line style="stroke: #A80036; stroke-width: 1.0;" x1="333" x2="473" y1="235.125" y2="235.125"/><text fill="#000000" font-family="sans-serif" font-size="13" font-weight="bold" lengthAdjust="spacingAndGlyphs" textLength="9" x="345" y="230.0591">4</text><text fill="#000000" font-family="sans-serif" font-size="13" lengthAdjust="spacingAndGlyphs" textLength="92" x="358" y="230.0591">confirmacion()</text><polygon fill="#A80036" points="467,260.2578,477,264.2578,467,268.2578,471,264.2578" style="stroke: #A80036; stroke-width: 1.0;"/><line style="stroke: #A80036; stroke-width: 1.0;" x1="323" x2="473" y1="264.2578" y2="264.2578"/><text fill="#000000" font-family="sans-serif" font-size="13" font-weight="bold" lengthAdjust="spacingAndGlyphs" textLength="9" x="330" y="259.1919">5</text><text fill="#000000" font-family="sans-serif" font-size="13" lengthAdjust="spacingAndGlyphs" textLength="109" x="343" y="259.1919">realizarRegistro()</text><!--
@startuml
title Diagrama de secuencia - Crear una cuenta
autonumber
actor Jugador
boundary InterfMenúUsuario
control Sistema
entity BD

Jugador -> InterfMenúUsuario : CrearCuenta()
activate InterfMenúUsuario
InterfMenúUsuario -> Sistema : comprobarDispo()
activate Sistema
Sistema -> BD : realizarConsulta()
activate BD
BD -> Sistema : confirmacion()
Sistema -> BD : realizarRegistro()
deactivate BD
deactivate Sistema
deactivate InterfMenúUsuario
@enduml

PlantUML version 1.2019.05(Sat Apr 20 16:45:36 UTC 2019)
(GPL source distribution)
Java Runtime: Java(TM) SE Runtime Environment
JVM: Java HotSpot(TM) 64-Bit Server VM
Java Version: 1.7.0_25-b15
Operating System: Linux
Default Encoding: UTF-8
Language: en
Country: US
--></g></svg>