<?xml version="1.0" encoding="UTF-8" standalone="no"?><svg xmlns="http://www.w3.org/2000/svg" xmlns:xlink="http://www.w3.org/1999/xlink" contentScriptType="application/ecmascript" contentStyleType="text/css" height="341px" preserveAspectRatio="none" style="width:500px;height:341px;" version="1.1" viewBox="0 0 500 341" width="500px" zoomAndPan="magnify"><defs><filter height="300%" id="f8dgj6pe3syap" width="300%" x="-1" y="-1"><feGaussianBlur result="blurOut" stdDeviation="2.0"/><feColorMatrix in="blurOut" result="blurOut2" type="matrix" values="0 0 0 0 0 0 0 0 0 0 0 0 0 0 0 0 0 0 .4 0"/><feOffset dx="4.0" dy="4.0" in="blurOut2" result="blurOut3"/><feBlend in="SourceGraphic" in2="blurOut3" mode="normal"/></filter></defs><g><text fill="#000000" font-family="sans-serif" font-size="14" font-weight="bold" lengthAdjust="spacingAndGlyphs" textLength="309" x="95.5" y="22.9951">Diagrama de secuencia - Borrar partida</text><rect fill="#FFFFFF" filter="url(#f8dgj6pe3syap)" height="88.2656" style="stroke: #A80036; stroke-width: 1.0;" width="10" x="175" y="147.7266"/><rect fill="#FFFFFF" filter="url(#f8dgj6pe3syap)" height="59.1328" style="stroke: #A80036; stroke-width: 1.0;" width="10" x="323" y="176.8594"/><rect fill="#FFFFFF" filter="url(#f8dgj6pe3syap)" height="30" style="stroke: #A80036; stroke-width: 1.0;" width="10" x="471" y="205.9922"/><line style="stroke: #A80036; stroke-width: 1.0; stroke-dasharray: 5.0,5.0;" x1="37" x2="37" y1="116.5938" y2="253.9922"/><line style="stroke: #A80036; stroke-width: 1.0; stroke-dasharray: 5.0,5.0;" x1="180" x2="180" y1="116.5938" y2="253.9922"/><line style="stroke: #A80036; stroke-width: 1.0; stroke-dasharray: 5.0,5.0;" x1="327.5" x2="327.5" y1="116.5938" y2="253.9922"/><line style="stroke: #A80036; stroke-width: 1.0; stroke-dasharray: 5.0,5.0;" x1="476" x2="476" y1="116.5938" y2="253.9922"/><text fill="#000000" font-family="sans-serif" font-size="14" lengthAdjust="spacingAndGlyphs" textLength="52" x="8" y="113.292">Jugador</text><ellipse cx="37" cy="43.2969" fill="#FEFECE" filter="url(#f8dgj6pe3syap)" rx="8" ry="8" style="stroke: #A80036; stroke-width: 2.0;"/><path d="M37,51.2969 L37,78.2969 M24,59.2969 L50,59.2969 M37,78.2969 L24,93.2969 M37,78.2969 L50,93.2969 " fill="none" filter="url(#f8dgj6pe3syap)" style="stroke: #A80036; stroke-width: 2.0;"/><text fill="#000000" font-family="sans-serif" font-size="14" lengthAdjust="spacingAndGlyphs" textLength="52" x="8" y="265.9873">Jugador</text><ellipse cx="37" cy="279.2891" fill="#FEFECE" filter="url(#f8dgj6pe3syap)" rx="8" ry="8" style="stroke: #A80036; stroke-width: 2.0;"/><path d="M37,287.2891 L37,314.2891 M24,295.2891 L50,295.2891 M37,314.2891 L24,329.2891 M37,314.2891 L50,329.2891 " fill="none" filter="url(#f8dgj6pe3syap)" style="stroke: #A80036; stroke-width: 2.0;"/><text fill="#000000" font-family="sans-serif" font-size="14" lengthAdjust="spacingAndGlyphs" textLength="126" x="114" y="113.292">InterfMenúUsuario</text><path d="M159.5,72.2969 L159.5,96.2969 M159.5,84.2969 L176.5,84.2969 " fill="none" filter="url(#f8dgj6pe3syap)" style="stroke: #A80036; stroke-width: 2.0;"/><ellipse cx="188.5" cy="84.2969" fill="#FEFECE" filter="url(#f8dgj6pe3syap)" rx="12" ry="12" style="stroke: #A80036; stroke-width: 2.0;"/><text fill="#000000" font-family="sans-serif" font-size="14" lengthAdjust="spacingAndGlyphs" textLength="126" x="114" y="265.9873">InterfMenúUsuario</text><path d="M159.5,273.2891 L159.5,297.2891 M159.5,285.2891 L176.5,285.2891 " fill="none" filter="url(#f8dgj6pe3syap)" style="stroke: #A80036; stroke-width: 2.0;"/><ellipse cx="188.5" cy="285.2891" fill="#FEFECE" filter="url(#f8dgj6pe3syap)" rx="12" ry="12" style="stroke: #A80036; stroke-width: 2.0;"/><text fill="#000000" font-family="sans-serif" font-size="14" lengthAdjust="spacingAndGlyphs" textLength="55" x="297.5" y="113.292">Sistema</text><ellipse cx="328" cy="84.2969" fill="#FEFECE" filter="url(#f8dgj6pe3syap)" rx="12" ry="12" style="stroke: #A80036; stroke-width: 2.0;"/><polygon fill="#A80036" points="324,72.2969,330,67.2969,328,72.2969,330,77.2969,324,72.2969" style="stroke: #A80036; stroke-width: 1.0;"/><text fill="#000000" font-family="sans-serif" font-size="14" lengthAdjust="spacingAndGlyphs" textLength="55" x="297.5" y="265.9873">Sistema</text><ellipse cx="328" cy="285.2891" fill="#FEFECE" filter="url(#f8dgj6pe3syap)" rx="12" ry="12" style="stroke: #A80036; stroke-width: 2.0;"/><polygon fill="#A80036" points="324,273.2891,330,268.2891,328,273.2891,330,278.2891,324,273.2891" style="stroke: #A80036; stroke-width: 1.0;"/><text fill="#000000" font-family="sans-serif" font-size="14" lengthAdjust="spacingAndGlyphs" textLength="21" x="462.5" y="113.292">BD</text><ellipse cx="476" cy="84.2969" fill="#FEFECE" filter="url(#f8dgj6pe3syap)" rx="12" ry="12" style="stroke: #A80036; stroke-width: 2.0;"/><line style="stroke: #A80036; stroke-width: 2.0;" x1="464" x2="488" y1="98.2969" y2="98.2969"/><text fill="#000000" font-family="sans-serif" font-size="14" lengthAdjust="spacingAndGlyphs" textLength="21" x="462.5" y="265.9873">BD</text><ellipse cx="476" cy="285.2891" fill="#FEFECE" filter="url(#f8dgj6pe3syap)" rx="12" ry="12" style="stroke: #A80036; stroke-width: 2.0;"/><line style="stroke: #A80036; stroke-width: 2.0;" x1="464" x2="488" y1="299.2891" y2="299.2891"/><rect fill="#FFFFFF" filter="url(#f8dgj6pe3syap)" height="88.2656" style="stroke: #A80036; stroke-width: 1.0;" width="10" x="175" y="147.7266"/><rect fill="#FFFFFF" filter="url(#f8dgj6pe3syap)" height="59.1328" style="stroke: #A80036; stroke-width: 1.0;" width="10" x="323" y="176.8594"/><rect fill="#FFFFFF" filter="url(#f8dgj6pe3syap)" height="30" style="stroke: #A80036; stroke-width: 1.0;" width="10" x="471" y="205.9922"/><polygon fill="#A80036" points="163,143.7266,173,147.7266,163,151.7266,167,147.7266" style="stroke: #A80036; stroke-width: 1.0;"/><line style="stroke: #A80036; stroke-width: 1.0;" x1="37" x2="169" y1="147.7266" y2="147.7266"/><text fill="#000000" font-family="sans-serif" font-size="13" font-weight="bold" lengthAdjust="spacingAndGlyphs" textLength="9" x="44" y="142.6606">1</text><text fill="#000000" font-family="sans-serif" font-size="13" lengthAdjust="spacingAndGlyphs" textLength="106" x="57" y="142.6606">eliminarPartida()</text><polygon fill="#A80036" points="311,172.8594,321,176.8594,311,180.8594,315,176.8594" style="stroke: #A80036; stroke-width: 1.0;"/><line style="stroke: #A80036; stroke-width: 1.0;" x1="185" x2="317" y1="176.8594" y2="176.8594"/><text fill="#000000" font-family="sans-serif" font-size="13" font-weight="bold" lengthAdjust="spacingAndGlyphs" textLength="9" x="192" y="171.7935">2</text><text fill="#000000" font-family="sans-serif" font-size="13" lengthAdjust="spacingAndGlyphs" textLength="106" x="205" y="171.7935">eliminarPartida()</text><polygon fill="#A80036" points="459,201.9922,469,205.9922,459,209.9922,463,205.9922" style="stroke: #A80036; stroke-width: 1.0;"/><line style="stroke: #A80036; stroke-width: 1.0;" x1="333" x2="465" y1="205.9922" y2="205.9922"/><text fill="#000000" font-family="sans-serif" font-size="13" font-weight="bold" lengthAdjust="spacingAndGlyphs" textLength="9" x="340" y="200.9263">3</text><text fill="#000000" font-family="sans-serif" font-size="13" lengthAdjust="spacingAndGlyphs" textLength="106" x="353" y="200.9263">eliminarPartida()</text><!--
@startuml
title Diagrama de secuencia - Borrar partida
autonumber
actor Jugador
boundary InterfMenúUsuario
control Sistema
entity BD

Jugador -> InterfMenúUsuario : eliminarPartida()
activate InterfMenúUsuario
InterfMenúUsuario -> Sistema : eliminarPartida()
activate Sistema
Sistema -> BD : eliminarPartida()
activate BD
deactivate BD
deactivate Sistema
deactivate InterfMenúUsuario
@enduml

PlantUML version 1.2019.05(Sat Apr 20 16:45:36 UTC 2019)
(GPL source distribution)
Java Runtime: Java(TM) SE Runtime Environment
JVM: Java HotSpot(TM) 64-Bit Server VM
Java Version: 1.7.0_25-b15
Operating System: Linux
Default Encoding: UTF-8
Language: en
Country: US
--></g></svg>